<svg xmlns="http://www.w3.org/2000/svg" xmlns:xlink="http://www.w3.org/1999/xlink" version="1.1" class="marks" width="488" height="364" viewBox="0 0 488 364"><rect width="488" height="364" fill="white"/><g fill="none" stroke-miterlimit="10" transform="translate(72,27)"><g class="mark-group role-frame root" role="graphics-object" aria-roledescription="group mark container"><g transform="translate(0,0)"><path class="background" aria-hidden="true" d="M0.5,0.5h300v300h-300Z" stroke="#ddd"/><g><g class="mark-group role-axis" role="graphics-symbol" aria-roledescription="axis" aria-label="X-axis titled 'Year (binned)' for a linear scale with values from 2,000 to 2,025"><g transform="translate(0.5,300.5)"><path class="background" aria-hidden="true" d="M0,0h0v0h0Z" pointer-events="none"/><g><g class="mark-rule role-axis-tick" pointer-events="none"><line transform="translate(0,0)" x2="0" y2="5" stroke="#888" stroke-width="1" opacity="1"/><line transform="translate(60,0)" x2="0" y2="5" stroke="#888" stroke-width="1" opacity="1"/><line transform="translate(120,0)" x2="0" y2="5" stroke="#888" stroke-width="1" opacity="1"/><line transform="translate(180,0)" x2="0" y2="5" stroke="#888" stroke-width="1" opacity="1"/><line transform="translate(240,0)" x2="0" y2="5" stroke="#888" stroke-width="1" opacity="1"/><line transform="translate(300,0)" x2="0" y2="5" stroke="#888" stroke-width="1" opacity="1"/></g><g class="mark-text role-axis-label" pointer-events="none"><text text-anchor="start" transform="translate(0,15)" font-family="sans-serif" font-size="10px" fill="#000" opacity="1">2,000</text><text text-anchor="middle" transform="translate(60,15)" font-family="sans-serif" font-size="10px" fill="#000" opacity="1">2,005</text><text text-anchor="middle" transform="translate(120,15)" font-family="sans-serif" font-size="10px" fill="#000" opacity="1">2,010</text><text text-anchor="middle" transform="translate(180,15)" font-family="sans-serif" font-size="10px" fill="#000" opacity="1">2,015</text><text text-anchor="middle" transform="translate(240,15)" font-family="sans-serif" font-size="10px" fill="#000" opacity="1">2,020</text><text text-anchor="end" transform="translate(300,15)" font-family="sans-serif" font-size="10px" fill="#000" opacity="1">2,025</text></g><g class="mark-rule role-axis-domain" pointer-events="none"><line transform="translate(0,0)" x2="300" y2="0" stroke="#888" stroke-width="1" opacity="1"/></g><g class="mark-text role-axis-title" pointer-events="none"><text text-anchor="middle" transform="translate(150,30)" font-family="sans-serif" font-size="11px" font-weight="bold" fill="#000" opacity="1">Year (binned)</text></g></g><path class="foreground" aria-hidden="true" d="" pointer-events="none" display="none"/></g></g><g class="mark-group role-axis" role="graphics-symbol" aria-roledescription="axis" aria-label="Y-axis titled 'Price (dollars)' for a linear scale with values from 0 to 6,000,000"><g transform="translate(0.5,0.5)"><path class="background" aria-hidden="true" d="M0,0h0v0h0Z" pointer-events="none"/><g><g class="mark-rule role-axis-tick" pointer-events="none"><line transform="translate(0,300)" x2="-5" y2="0" stroke="#888" stroke-width="1" opacity="1"/><line transform="translate(0,250)" x2="-5" y2="0" stroke="#888" stroke-width="1" opacity="1"/><line transform="translate(0,200)" x2="-5" y2="0" stroke="#888" stroke-width="1" opacity="1"/><line transform="translate(0,150)" x2="-5" y2="0" stroke="#888" stroke-width="1" opacity="1"/><line transform="translate(0,100)" x2="-5" y2="0" stroke="#888" stroke-width="1" opacity="1"/><line transform="translate(0,50)" x2="-5" y2="0" stroke="#888" stroke-width="1" opacity="1"/><line transform="translate(0,0)" x2="-5" y2="0" stroke="#888" stroke-width="1" opacity="1"/></g><g class="mark-text role-axis-label" pointer-events="none"><text text-anchor="end" transform="translate(-7,303)" font-family="sans-serif" font-size="10px" fill="#000" opacity="1">0</text><text text-anchor="end" transform="translate(-7,253)" font-family="sans-serif" font-size="10px" fill="#000" opacity="1">1,000,000</text><text text-anchor="end" transform="translate(-7,203.00000000000003)" font-family="sans-serif" font-size="10px" fill="#000" opacity="1">2,000,000</text><text text-anchor="end" transform="translate(-7,153)" font-family="sans-serif" font-size="10px" fill="#000" opacity="1">3,000,000</text><text text-anchor="end" transform="translate(-7,103.00000000000001)" font-family="sans-serif" font-size="10px" fill="#000" opacity="1">4,000,000</text><text text-anchor="end" transform="translate(-7,52.999999999999986)" font-family="sans-serif" font-size="10px" fill="#000" opacity="1">5,000,000</text><text text-anchor="end" transform="translate(-7,3)" font-family="sans-serif" font-size="10px" fill="#000" opacity="1">6,000,000</text></g><g class="mark-rule role-axis-domain" pointer-events="none"><line transform="translate(0,300)" x2="0" y2="-300" stroke="#888" stroke-width="1" opacity="1"/></g><g class="mark-text role-axis-title" pointer-events="none"><text text-anchor="middle" transform="translate(-55.4873046875,150) rotate(-90) translate(0,-2)" font-family="sans-serif" font-size="11px" font-weight="bold" fill="#000" opacity="1">Price (dollars)</text></g></g><path class="foreground" aria-hidden="true" d="" pointer-events="none" display="none"/></g></g><g class="mark-symbol role-mark marks" role="graphics-object" aria-roledescription="symbol mark container"><path aria-label="Year (binned): 2010 – 2015; Price (dollars): 0 – 1000000; Count of Records: 6855" role="graphics-symbol" aria-roledescription="circle" transform="translate(150,275)" d="M19.105,0A19.105,19.105,0,1,1,-19.105,0A19.105,19.105,0,1,1,19.105,0" fill="#4c78a8" stroke-width="2"/><path aria-label="Year (binned): 2005 – 2010; Price (dollars): 4000000 – 5000000; Count of Records: 62" role="graphics-symbol" aria-roledescription="circle" transform="translate(90,75)" d="M1.817,0A1.817,1.817,0,1,1,-1.817,0A1.817,1.817,0,1,1,1.817,0" fill="#4c78a8" stroke-width="2"/><path aria-label="Year (binned): 2010 – 2015; Price (dollars): 3000000 – 4000000; Count of Records: 173" role="graphics-symbol" aria-roledescription="circle" transform="translate(150,124.99999999999999)" d="M3.035,0A3.035,3.035,0,1,1,-3.035,0A3.035,3.035,0,1,1,3.035,0" fill="#4c78a8" stroke-width="2"/><path aria-label="Year (binned): 2005 – 2010; Price (dollars): 0 – 1000000; Count of Records: 8860" role="graphics-symbol" aria-roledescription="circle" transform="translate(90,275)" d="M21.72,0A21.72,21.72,0,1,1,-21.72,0A21.72,21.72,0,1,1,21.72,0" fill="#4c78a8" stroke-width="2"/><path aria-label="Year (binned): 2010 – 2015; Price (dollars): 1000000 – 2000000; Count of Records: 1698" role="graphics-symbol" aria-roledescription="circle" transform="translate(150,225)" d="M9.508,0A9.508,9.508,0,1,1,-9.508,0A9.508,9.508,0,1,1,9.508,0" fill="#4c78a8" stroke-width="2"/><path aria-label="Year (binned): 2020 – 2025; Price (dollars): 1000000 – 2000000; Count of Records: 1505" role="graphics-symbol" aria-roledescription="circle" transform="translate(270,225)" d="M8.952,0A8.952,8.952,0,1,1,-8.952,0A8.952,8.952,0,1,1,8.952,0" fill="#4c78a8" stroke-width="2"/><path aria-label="Year (binned): 2015 – 2020; Price (dollars): 1000000 – 2000000; Count of Records: 2302" role="graphics-symbol" aria-roledescription="circle" transform="translate(210,225)" d="M11.071,0A11.071,11.071,0,1,1,-11.071,0A11.071,11.071,0,1,1,11.071,0" fill="#4c78a8" stroke-width="2"/><path aria-label="Year (binned): 2010 – 2015; Price (dollars): 4000000 – 5000000; Count of Records: 109" role="graphics-symbol" aria-roledescription="circle" transform="translate(150,75)" d="M2.409,0A2.409,2.409,0,1,1,-2.409,0A2.409,2.409,0,1,1,2.409,0" fill="#4c78a8" stroke-width="2"/><path aria-label="Year (binned): 2005 – 2010; Price (dollars): 1000000 – 2000000; Count of Records: 1457" role="graphics-symbol" aria-roledescription="circle" transform="translate(90,225)" d="M8.808,0A8.808,8.808,0,1,1,-8.808,0A8.808,8.808,0,1,1,8.808,0" fill="#4c78a8" stroke-width="2"/><path aria-label="Year (binned): 2005 – 2010; Price (dollars): 2000000 – 3000000; Count of Records: 418" role="graphics-symbol" aria-roledescription="circle" transform="translate(90,174.99999999999997)" d="M4.718,0A4.718,4.718,0,1,1,-4.718,0A4.718,4.718,0,1,1,4.718,0" fill="#4c78a8" stroke-width="2"/><path aria-label="Year (binned): 2020 – 2025; Price (dollars): 5000000 – 6000000; Count of Records: 92" role="graphics-symbol" aria-roledescription="circle" transform="translate(270,25.00000000000001)" d="M2.213,0A2.213,2.213,0,1,1,-2.213,0A2.213,2.213,0,1,1,2.213,0" fill="#4c78a8" stroke-width="2"/><path aria-label="Year (binned): 2015 – 2020; Price (dollars): 5000000 – 6000000; Count of Records: 129" role="graphics-symbol" aria-roledescription="circle" transform="translate(210,25.00000000000001)" d="M2.621,0A2.621,2.621,0,1,1,-2.621,0A2.621,2.621,0,1,1,2.621,0" fill="#4c78a8" stroke-width="2"/><path aria-label="Year (binned): 2020 – 2025; Price (dollars): 4000000 – 5000000; Count of Records: 120" role="graphics-symbol" aria-roledescription="circle" transform="translate(270,75)" d="M2.528,0A2.528,2.528,0,1,1,-2.528,0A2.528,2.528,0,1,1,2.528,0" fill="#4c78a8" stroke-width="2"/><path aria-label="Year (binned): 2015 – 2020; Price (dollars): 4000000 – 5000000; Count of Records: 151" role="graphics-symbol" aria-roledescription="circle" transform="translate(210,75)" d="M2.835,0A2.835,2.835,0,1,1,-2.835,0A2.835,2.835,0,1,1,2.835,0" fill="#4c78a8" stroke-width="2"/><path aria-label="Year (binned): 2000 – 2005; Price (dollars): 1000000 – 2000000; Count of Records: 1013" role="graphics-symbol" aria-roledescription="circle" transform="translate(30,225)" d="M7.344,0A7.344,7.344,0,1,1,-7.344,0A7.344,7.344,0,1,1,7.344,0" fill="#4c78a8" stroke-width="2"/><path aria-label="Year (binned): 2020 – 2025; Price (dollars): 3000000 – 4000000; Count of Records: 273" role="graphics-symbol" aria-roledescription="circle" transform="translate(270,124.99999999999999)" d="M3.813,0A3.813,3.813,0,1,1,-3.813,0A3.813,3.813,0,1,1,3.813,0" fill="#4c78a8" stroke-width="2"/><path aria-label="Year (binned): 2020 – 2025; Price (dollars): 2000000 – 3000000; Count of Records: 619" role="graphics-symbol" aria-roledescription="circle" transform="translate(270,174.99999999999997)" d="M5.741,0A5.741,5.741,0,1,1,-5.741,0A5.741,5.741,0,1,1,5.741,0" fill="#4c78a8" stroke-width="2"/><path aria-label="Year (binned): 2015 – 2020; Price (dollars): 3000000 – 4000000; Count of Records: 304" role="graphics-symbol" aria-roledescription="circle" transform="translate(210,124.99999999999999)" d="M4.023,0A4.023,4.023,0,1,1,-4.023,0A4.023,4.023,0,1,1,4.023,0" fill="#4c78a8" stroke-width="2"/><path aria-label="Year (binned): 2000 – 2005; Price (dollars): 3000000 – 4000000; Count of Records: 72" role="graphics-symbol" aria-roledescription="circle" transform="translate(30,124.99999999999999)" d="M1.958,0A1.958,1.958,0,1,1,-1.958,0A1.958,1.958,0,1,1,1.958,0" fill="#4c78a8" stroke-width="2"/><path aria-label="Year (binned): 2015 – 2020; Price (dollars): 0 – 1000000; Count of Records: 5050" role="graphics-symbol" aria-roledescription="circle" transform="translate(210,275)" d="M16.398,0A16.398,16.398,0,1,1,-16.398,0A16.398,16.398,0,1,1,16.398,0" fill="#4c78a8" stroke-width="2"/><path aria-label="Year (binned): 2015 – 2020; Price (dollars): 2000000 – 3000000; Count of Records: 879" role="graphics-symbol" aria-roledescription="circle" transform="translate(210,174.99999999999997)" d="M6.841,0A6.841,6.841,0,1,1,-6.841,0A6.841,6.841,0,1,1,6.841,0" fill="#4c78a8" stroke-width="2"/><path aria-label="Year (binned): 2010 – 2015; Price (dollars): 5000000 – 6000000; Count of Records: 43" role="graphics-symbol" aria-roledescription="circle" transform="translate(150,25.00000000000001)" d="M1.513,0A1.513,1.513,0,1,1,-1.513,0A1.513,1.513,0,1,1,1.513,0" fill="#4c78a8" stroke-width="2"/><path aria-label="Year (binned): 2010 – 2015; Price (dollars): 2000000 – 3000000; Count of Records: 486" role="graphics-symbol" aria-roledescription="circle" transform="translate(150,174.99999999999997)" d="M5.087,0A5.087,5.087,0,1,1,-5.087,0A5.087,5.087,0,1,1,5.087,0" fill="#4c78a8" stroke-width="2"/><path aria-label="Year (binned): 2000 – 2005; Price (dollars): 0 – 1000000; Count of Records: 10594" role="graphics-symbol" aria-roledescription="circle" transform="translate(30,275)" d="M23.75,0A23.75,23.75,0,1,1,-23.75,0A23.75,23.75,0,1,1,23.75,0" fill="#4c78a8" stroke-width="2"/><path aria-label="Year (binned): 2000 – 2005; Price (dollars): 2000000 – 3000000; Count of Records: 245" role="graphics-symbol" aria-roledescription="circle" transform="translate(30,174.99999999999997)" d="M3.612,0A3.612,3.612,0,1,1,-3.612,0A3.612,3.612,0,1,1,3.612,0" fill="#4c78a8" stroke-width="2"/><path aria-label="Year (binned): 2020 – 2025; Price (dollars): 0 – 1000000; Count of Records: 2508" role="graphics-symbol" aria-roledescription="circle" transform="translate(270,275)" d="M11.556,0A11.556,11.556,0,1,1,-11.556,0A11.556,11.556,0,1,1,11.556,0" fill="#4c78a8" stroke-width="2"/><path aria-label="Year (binned): 2005 – 2010; Price (dollars): 3000000 – 4000000; Count of Records: 133" role="graphics-symbol" aria-roledescription="circle" transform="translate(90,124.99999999999999)" d="M2.661,0A2.661,2.661,0,1,1,-2.661,0A2.661,2.661,0,1,1,2.661,0" fill="#4c78a8" stroke-width="2"/><path aria-label="Year (binned): 2005 – 2010; Price (dollars): 5000000 – 6000000; Count of Records: 32" role="graphics-symbol" aria-roledescription="circle" transform="translate(90,25.00000000000001)" d="M1.305,0A1.305,1.305,0,1,1,-1.305,0A1.305,1.305,0,1,1,1.305,0" fill="#4c78a8" stroke-width="2"/><path aria-label="Year (binned): 2000 – 2005; Price (dollars): 5000000 – 6000000; Count of Records: 22" role="graphics-symbol" aria-roledescription="circle" transform="translate(30,25.00000000000001)" d="M1.082,0A1.082,1.082,0,1,1,-1.082,0A1.082,1.082,0,1,1,1.082,0" fill="#4c78a8" stroke-width="2"/><path aria-label="Year (binned): 2000 – 2005; Price (dollars): 4000000 – 5000000; Count of Records: 24" role="graphics-symbol" aria-roledescription="circle" transform="translate(30,75)" d="M1.13,0A1.13,1.13,0,1,1,-1.13,0A1.13,1.13,0,1,1,1.13,0" fill="#4c78a8" stroke-width="2"/></g><g class="mark-group role-legend" role="graphics-symbol" aria-roledescription="legend" aria-label="Symbol legend titled 'Count of Records' for size with values from 0 to 10,594"><g transform="translate(318,0)"><path class="background" aria-hidden="true" d="M0,0h93v216h-93Z" pointer-events="none"/><g><g class="mark-group role-legend-entry"><g transform="translate(0,16)"><path class="background" aria-hidden="true" d="M0,0h0v0h0Z" pointer-events="none"/><g><g class="mark-group role-scope" role="graphics-object" aria-roledescription="group mark container"><g transform="translate(0,0)"><path class="background" aria-hidden="true" d="M0,0h82.5859375v23.319261724795854h-82.5859375Z" pointer-events="none" opacity="1"/><g><g class="mark-symbol role-legend-symbol" pointer-events="none"><path transform="translate(24,11.5)" d="M10.319,0A10.319,10.319,0,1,1,-10.319,0A10.319,10.319,0,1,1,10.319,0" fill="#4c78a8" stroke-width="1.5" opacity="1"/></g><g class="mark-text role-legend-label" pointer-events="none"><text text-anchor="start" transform="translate(52,14.5)" font-family="sans-serif" font-size="10px" fill="#000" opacity="1">2,000</text></g></g><path class="foreground" aria-hidden="true" d="" pointer-events="none" display="none"/></g><g transform="translate(0,27)"><path class="background" aria-hidden="true" d="M0,0h82.5859375v31.59363988488387h-82.5859375Z" pointer-events="none" opacity="1"/><g><g class="mark-symbol role-legend-symbol" pointer-events="none"><path transform="translate(24,15.5)" d="M14.594,0A14.594,14.594,0,1,1,-14.594,0A14.594,14.594,0,1,1,14.594,0" fill="#4c78a8" stroke-width="1.5" opacity="1"/></g><g class="mark-text role-legend-label" pointer-events="none"><text text-anchor="start" transform="translate(52,18.5)" font-family="sans-serif" font-size="10px" fill="#000" opacity="1">4,000</text></g></g><path class="foreground" aria-hidden="true" d="" pointer-events="none" display="none"/></g><g transform="translate(0,62)"><path class="background" aria-hidden="true" d="M0,0h82.5859375v38.37348560394726h-82.5859375Z" pointer-events="none" opacity="1"/><g><g class="mark-symbol role-legend-symbol" pointer-events="none"><path transform="translate(24,19)" d="M17.873,0A17.873,17.873,0,1,1,-17.873,0A17.873,17.873,0,1,1,17.873,0" fill="#4c78a8" stroke-width="1.5" opacity="1"/></g><g class="mark-text role-legend-label" pointer-events="none"><text text-anchor="start" transform="translate(52,22)" font-family="sans-serif" font-size="10px" fill="#000" opacity="1">6,000</text></g></g><path class="foreground" aria-hidden="true" d="" pointer-events="none" display="none"/></g><g transform="translate(0,104)"><path class="background" aria-hidden="true" d="M0,0h82.5859375v43.6385234495917h-82.5859375Z" pointer-events="none" opacity="1"/><g><g class="mark-symbol role-legend-symbol" pointer-events="none"><path transform="translate(24,21.5)" d="M20.639,0A20.639,20.639,0,1,1,-20.639,0A20.639,20.639,0,1,1,20.639,0" fill="#4c78a8" stroke-width="1.5" opacity="1"/></g><g class="mark-text role-legend-label" pointer-events="none"><text text-anchor="start" transform="translate(52,24.5)" font-family="sans-serif" font-size="10px" fill="#000" opacity="1">8,000</text></g></g><path class="foreground" aria-hidden="true" d="" pointer-events="none" display="none"/></g><g transform="translate(0,151)"><path class="background" aria-hidden="true" d="M0,0h82.5859375v48.57457069425527h-82.5859375Z" pointer-events="none" opacity="1"/><g><g class="mark-symbol role-legend-symbol" pointer-events="none"><path transform="translate(24,24)" d="M23.075,0A23.075,23.075,0,1,1,-23.075,0A23.075,23.075,0,1,1,23.075,0" fill="#4c78a8" stroke-width="1.5" opacity="1"/></g><g class="mark-text role-legend-label" pointer-events="none"><text text-anchor="start" transform="translate(52,27)" font-family="sans-serif" font-size="10px" fill="#000" opacity="1">10,000</text></g></g><path class="foreground" aria-hidden="true" d="" pointer-events="none" display="none"/></g></g></g><path class="foreground" aria-hidden="true" d="" pointer-events="none" display="none"/></g></g><g class="mark-text role-legend-title" pointer-events="none"><text text-anchor="start" transform="translate(0,9)" font-family="sans-serif" font-size="11px" font-weight="bold" fill="#000" opacity="1">Count of Records</text></g></g><path class="foreground" aria-hidden="true" d="" pointer-events="none" display="none"/></g></g><g class="mark-group role-title"><g transform="translate(150,-22)"><path class="background" aria-hidden="true" d="M0,0h0v0h0Z" pointer-events="none"/><g><g class="mark-text role-title-text" role="graphics-symbol" aria-roledescription="title" aria-label="Title text 'Price of Residential Transactions by Year'" pointer-events="none"><text text-anchor="middle" transform="translate(0,10)" font-family="sans-serif" font-size="13px" font-weight="bold" fill="#000" opacity="1">Price of Residential Transactions by Year</text></g></g><path class="foreground" aria-hidden="true" d="" pointer-events="none" display="none"/></g></g></g><path class="foreground" aria-hidden="true" d="" display="none"/></g></g></g></svg>