<svg xmlns="http://www.w3.org/2000/svg" xmlns:xlink="http://www.w3.org/1999/xlink" version="1.1" class="marks" width="488" height="364" viewBox="0 0 488 364"><rect width="488" height="364" fill="white"/><g fill="none" stroke-miterlimit="10" transform="translate(72,27)"><g class="mark-group role-frame root" role="graphics-object" aria-roledescription="group mark container"><g transform="translate(0,0)"><path class="background" aria-hidden="true" d="M0.5,0.5h300v300h-300Z" stroke="#ddd"/><g><g class="mark-group role-axis" role="graphics-symbol" aria-roledescription="axis" aria-label="X-axis titled 'Year (binned)' for a linear scale with values from 2,000 to 2,025"><g transform="translate(0.5,300.5)"><path class="background" aria-hidden="true" d="M0,0h0v0h0Z" pointer-events="none"/><g><g class="mark-rule role-axis-tick" pointer-events="none"><line transform="translate(0,0)" x2="0" y2="5" stroke="#888" stroke-width="1" opacity="1"/><line transform="translate(60,0)" x2="0" y2="5" stroke="#888" stroke-width="1" opacity="1"/><line transform="translate(120,0)" x2="0" y2="5" stroke="#888" stroke-width="1" opacity="1"/><line transform="translate(180,0)" x2="0" y2="5" stroke="#888" stroke-width="1" opacity="1"/><line transform="translate(240,0)" x2="0" y2="5" stroke="#888" stroke-width="1" opacity="1"/><line transform="translate(300,0)" x2="0" y2="5" stroke="#888" stroke-width="1" opacity="1"/></g><g class="mark-text role-axis-label" pointer-events="none"><text text-anchor="start" transform="translate(0,15)" font-family="sans-serif" font-size="10px" fill="#000" opacity="1">2,000</text><text text-anchor="middle" transform="translate(60,15)" font-family="sans-serif" font-size="10px" fill="#000" opacity="1">2,005</text><text text-anchor="middle" transform="translate(120,15)" font-family="sans-serif" font-size="10px" fill="#000" opacity="1">2,010</text><text text-anchor="middle" transform="translate(180,15)" font-family="sans-serif" font-size="10px" fill="#000" opacity="1">2,015</text><text text-anchor="middle" transform="translate(240,15)" font-family="sans-serif" font-size="10px" fill="#000" opacity="1">2,020</text><text text-anchor="end" transform="translate(300,15)" font-family="sans-serif" font-size="10px" fill="#000" opacity="1">2,025</text></g><g class="mark-rule role-axis-domain" pointer-events="none"><line transform="translate(0,0)" x2="300" y2="0" stroke="#888" stroke-width="1" opacity="1"/></g><g class="mark-text role-axis-title" pointer-events="none"><text text-anchor="middle" transform="translate(150,30)" font-family="sans-serif" font-size="11px" font-weight="bold" fill="#000" opacity="1">Year (binned)</text></g></g><path class="foreground" aria-hidden="true" d="" pointer-events="none" display="none"/></g></g><g class="mark-group role-axis" role="graphics-symbol" aria-roledescription="axis" aria-label="Y-axis titled 'price (binned)' for a linear scale with values from 0 to 6,000,000"><g transform="translate(0.5,0.5)"><path class="background" aria-hidden="true" d="M0,0h0v0h0Z" pointer-events="none"/><g><g class="mark-rule role-axis-tick" pointer-events="none"><line transform="translate(0,300)" x2="-5" y2="0" stroke="#888" stroke-width="1" opacity="1"/><line transform="translate(0,250)" x2="-5" y2="0" stroke="#888" stroke-width="1" opacity="1"/><line transform="translate(0,200)" x2="-5" y2="0" stroke="#888" stroke-width="1" opacity="1"/><line transform="translate(0,150)" x2="-5" y2="0" stroke="#888" stroke-width="1" opacity="1"/><line transform="translate(0,100)" x2="-5" y2="0" stroke="#888" stroke-width="1" opacity="1"/><line transform="translate(0,50)" x2="-5" y2="0" stroke="#888" stroke-width="1" opacity="1"/><line transform="translate(0,0)" x2="-5" y2="0" stroke="#888" stroke-width="1" opacity="1"/></g><g class="mark-text role-axis-label" pointer-events="none"><text text-anchor="end" transform="translate(-7,303)" font-family="sans-serif" font-size="10px" fill="#000" opacity="1">0</text><text text-anchor="end" transform="translate(-7,253)" font-family="sans-serif" font-size="10px" fill="#000" opacity="1">1,000,000</text><text text-anchor="end" transform="translate(-7,203.00000000000003)" font-family="sans-serif" font-size="10px" fill="#000" opacity="1">2,000,000</text><text text-anchor="end" transform="translate(-7,153)" font-family="sans-serif" font-size="10px" fill="#000" opacity="1">3,000,000</text><text text-anchor="end" transform="translate(-7,103.00000000000001)" font-family="sans-serif" font-size="10px" fill="#000" opacity="1">4,000,000</text><text text-anchor="end" transform="translate(-7,52.999999999999986)" font-family="sans-serif" font-size="10px" fill="#000" opacity="1">5,000,000</text><text text-anchor="end" transform="translate(-7,3)" font-family="sans-serif" font-size="10px" fill="#000" opacity="1">6,000,000</text></g><g class="mark-rule role-axis-domain" pointer-events="none"><line transform="translate(0,300)" x2="0" y2="-300" stroke="#888" stroke-width="1" opacity="1"/></g><g class="mark-text role-axis-title" pointer-events="none"><text text-anchor="middle" transform="translate(-55.4873046875,150) rotate(-90) translate(0,-2)" font-family="sans-serif" font-size="11px" font-weight="bold" fill="#000" opacity="1">price (binned)</text></g></g><path class="foreground" aria-hidden="true" d="" pointer-events="none" display="none"/></g></g><g class="mark-symbol role-mark marks" role="graphics-object" aria-roledescription="symbol mark container"><path aria-label="Year (binned): 2010 – 2015; price (binned): 0 – 1000000; Count of Records: 7097" role="graphics-symbol" aria-roledescription="circle" transform="translate(150,275)" d="M19.263,0A19.263,19.263,0,1,1,-19.263,0A19.263,19.263,0,1,1,19.263,0" fill="#4c78a8" stroke-width="2"/><path aria-label="Year (binned): 2005 – 2010; price (binned): 4000000 – 5000000; Count of Records: 79" role="graphics-symbol" aria-roledescription="circle" transform="translate(90,75)" d="M2.032,0A2.032,2.032,0,1,1,-2.032,0A2.032,2.032,0,1,1,2.032,0" fill="#4c78a8" stroke-width="2"/><path aria-label="Year (binned): 2010 – 2015; price (binned): 3000000 – 4000000; Count of Records: 215" role="graphics-symbol" aria-roledescription="circle" transform="translate(150,124.99999999999999)" d="M3.353,0A3.353,3.353,0,1,1,-3.353,0A3.353,3.353,0,1,1,3.353,0" fill="#4c78a8" stroke-width="2"/><path aria-label="Year (binned): 2005 – 2010; price (binned): 0 – 1000000; Count of Records: 8950" role="graphics-symbol" aria-roledescription="circle" transform="translate(90,275)" d="M21.632,0A21.632,21.632,0,1,1,-21.632,0A21.632,21.632,0,1,1,21.632,0" fill="#4c78a8" stroke-width="2"/><path aria-label="Year (binned): 2010 – 2015; price (binned): 1000000 – 2000000; Count of Records: 1787" role="graphics-symbol" aria-roledescription="circle" transform="translate(150,225)" d="M9.666,0A9.666,9.666,0,1,1,-9.666,0A9.666,9.666,0,1,1,9.666,0" fill="#4c78a8" stroke-width="2"/><path aria-label="Year (binned): 2020 – 2025; price (binned): 1000000 – 2000000; Count of Records: 1596" role="graphics-symbol" aria-roledescription="circle" transform="translate(270,225)" d="M9.135,0A9.135,9.135,0,1,1,-9.135,0A9.135,9.135,0,1,1,9.135,0" fill="#4c78a8" stroke-width="2"/><path aria-label="Year (binned): 2015 – 2020; price (binned): 1000000 – 2000000; Count of Records: 2368" role="graphics-symbol" aria-roledescription="circle" transform="translate(210,225)" d="M11.127,0A11.127,11.127,0,1,1,-11.127,0A11.127,11.127,0,1,1,11.127,0" fill="#4c78a8" stroke-width="2"/><path aria-label="Year (binned): 2010 – 2015; price (binned): 4000000 – 5000000; Count of Records: 137" role="graphics-symbol" aria-roledescription="circle" transform="translate(150,75)" d="M2.676,0A2.676,2.676,0,1,1,-2.676,0A2.676,2.676,0,1,1,2.676,0" fill="#4c78a8" stroke-width="2"/><path aria-label="Year (binned): 2005 – 2010; price (binned): 1000000 – 2000000; Count of Records: 1510" role="graphics-symbol" aria-roledescription="circle" transform="translate(90,225)" d="M8.885,0A8.885,8.885,0,1,1,-8.885,0A8.885,8.885,0,1,1,8.885,0" fill="#4c78a8" stroke-width="2"/><path aria-label="Year (binned): 2005 – 2010; price (binned): 2000000 – 3000000; Count of Records: 456" role="graphics-symbol" aria-roledescription="circle" transform="translate(90,174.99999999999997)" d="M4.883,0A4.883,4.883,0,1,1,-4.883,0A4.883,4.883,0,1,1,4.883,0" fill="#4c78a8" stroke-width="2"/><path aria-label="Year (binned): 2020 – 2025; price (binned): 5000000 – 6000000; Count of Records: 105" role="graphics-symbol" aria-roledescription="circle" transform="translate(270,25.00000000000001)" d="M2.343,0A2.343,2.343,0,1,1,-2.343,0A2.343,2.343,0,1,1,2.343,0" fill="#4c78a8" stroke-width="2"/><path aria-label="Year (binned): 2015 – 2020; price (binned): 5000000 – 6000000; Count of Records: 156" role="graphics-symbol" aria-roledescription="circle" transform="translate(210,25.00000000000001)" d="M2.856,0A2.856,2.856,0,1,1,-2.856,0A2.856,2.856,0,1,1,2.856,0" fill="#4c78a8" stroke-width="2"/><path aria-label="Year (binned): 2020 – 2025; price (binned): 4000000 – 5000000; Count of Records: 127" role="graphics-symbol" aria-roledescription="circle" transform="translate(270,75)" d="M2.577,0A2.577,2.577,0,1,1,-2.577,0A2.577,2.577,0,1,1,2.577,0" fill="#4c78a8" stroke-width="2"/><path aria-label="Year (binned): 2015 – 2020; price (binned): 4000000 – 5000000; Count of Records: 171" role="graphics-symbol" aria-roledescription="circle" transform="translate(210,75)" d="M2.99,0A2.99,2.99,0,1,1,-2.99,0A2.99,2.99,0,1,1,2.99,0" fill="#4c78a8" stroke-width="2"/><path aria-label="Year (binned): 2000 – 2005; price (binned): 1000000 – 2000000; Count of Records: 1075" role="graphics-symbol" aria-roledescription="circle" transform="translate(30,225)" d="M7.497,0A7.497,7.497,0,1,1,-7.497,0A7.497,7.497,0,1,1,7.497,0" fill="#4c78a8" stroke-width="2"/><path aria-label="Year (binned): 2020 – 2025; price (binned): 3000000 – 4000000; Count of Records: 300" role="graphics-symbol" aria-roledescription="circle" transform="translate(270,124.99999999999999)" d="M3.961,0A3.961,3.961,0,1,1,-3.961,0A3.961,3.961,0,1,1,3.961,0" fill="#4c78a8" stroke-width="2"/><path aria-label="Year (binned): 2020 – 2025; price (binned): 2000000 – 3000000; Count of Records: 636" role="graphics-symbol" aria-roledescription="circle" transform="translate(270,174.99999999999997)" d="M5.767,0A5.767,5.767,0,1,1,-5.767,0A5.767,5.767,0,1,1,5.767,0" fill="#4c78a8" stroke-width="2"/><path aria-label="Year (binned): 2015 – 2020; price (binned): 3000000 – 4000000; Count of Records: 341" role="graphics-symbol" aria-roledescription="circle" transform="translate(210,124.99999999999999)" d="M4.223,0A4.223,4.223,0,1,1,-4.223,0A4.223,4.223,0,1,1,4.223,0" fill="#4c78a8" stroke-width="2"/><path aria-label="Year (binned): 2000 – 2005; price (binned): 3000000 – 4000000; Count of Records: 98" role="graphics-symbol" aria-roledescription="circle" transform="translate(30,124.99999999999999)" d="M2.264,0A2.264,2.264,0,1,1,-2.264,0A2.264,2.264,0,1,1,2.264,0" fill="#4c78a8" stroke-width="2"/><path aria-label="Year (binned): 2015 – 2020; price (binned): 0 – 1000000; Count of Records: 5234" role="graphics-symbol" aria-roledescription="circle" transform="translate(210,275)" d="M16.543,0A16.543,16.543,0,1,1,-16.543,0A16.543,16.543,0,1,1,16.543,0" fill="#4c78a8" stroke-width="2"/><path aria-label="Year (binned): 2015 – 2020; price (binned): 2000000 – 3000000; Count of Records: 909" role="graphics-symbol" aria-roledescription="circle" transform="translate(210,174.99999999999997)" d="M6.894,0A6.894,6.894,0,1,1,-6.894,0A6.894,6.894,0,1,1,6.894,0" fill="#4c78a8" stroke-width="2"/><path aria-label="Year (binned): 2010 – 2015; price (binned): 2000000 – 3000000; Count of Records: 539" role="graphics-symbol" aria-roledescription="circle" transform="translate(150,174.99999999999997)" d="M5.309,0A5.309,5.309,0,1,1,-5.309,0A5.309,5.309,0,1,1,5.309,0" fill="#4c78a8" stroke-width="2"/><path aria-label="Year (binned): 2010 – 2015; price (binned): 5000000 – 6000000; Count of Records: 63" role="graphics-symbol" aria-roledescription="circle" transform="translate(150,25.00000000000001)" d="M1.815,0A1.815,1.815,0,1,1,-1.815,0A1.815,1.815,0,1,1,1.815,0" fill="#4c78a8" stroke-width="2"/><path aria-label="Year (binned): 2000 – 2005; price (binned): 0 – 1000000; Count of Records: 10788" role="graphics-symbol" aria-roledescription="circle" transform="translate(30,275)" d="M23.75,0A23.75,23.75,0,1,1,-23.75,0A23.75,23.75,0,1,1,23.75,0" fill="#4c78a8" stroke-width="2"/><path aria-label="Year (binned): 2005 – 2010; price (binned): 5000000 – 6000000; Count of Records: 51" role="graphics-symbol" aria-roledescription="circle" transform="translate(90,25.00000000000001)" d="M1.633,0A1.633,1.633,0,1,1,-1.633,0A1.633,1.633,0,1,1,1.633,0" fill="#4c78a8" stroke-width="2"/><path aria-label="Year (binned): 2020 – 2025; price (binned): 0 – 1000000; Count of Records: 2805" role="graphics-symbol" aria-roledescription="circle" transform="translate(270,275)" d="M12.11,0A12.11,12.11,0,1,1,-12.11,0A12.11,12.11,0,1,1,12.11,0" fill="#4c78a8" stroke-width="2"/><path aria-label="Year (binned): 2000 – 2005; price (binned): 4000000 – 5000000; Count of Records: 41" role="graphics-symbol" aria-roledescription="circle" transform="translate(30,75)" d="M1.464,0A1.464,1.464,0,1,1,-1.464,0A1.464,1.464,0,1,1,1.464,0" fill="#4c78a8" stroke-width="2"/><path aria-label="Year (binned): 2000 – 2005; price (binned): 2000000 – 3000000; Count of Records: 280" role="graphics-symbol" aria-roledescription="circle" transform="translate(30,174.99999999999997)" d="M3.826,0A3.826,3.826,0,1,1,-3.826,0A3.826,3.826,0,1,1,3.826,0" fill="#4c78a8" stroke-width="2"/><path aria-label="Year (binned): 2005 – 2010; price (binned): 3000000 – 4000000; Count of Records: 167" role="graphics-symbol" aria-roledescription="circle" transform="translate(90,124.99999999999999)" d="M2.955,0A2.955,2.955,0,1,1,-2.955,0A2.955,2.955,0,1,1,2.955,0" fill="#4c78a8" stroke-width="2"/><path aria-label="Year (binned): 2000 – 2005; price (binned): 5000000 – 6000000; Count of Records: 33" role="graphics-symbol" aria-roledescription="circle" transform="translate(30,25.00000000000001)" d="M1.314,0A1.314,1.314,0,1,1,-1.314,0A1.314,1.314,0,1,1,1.314,0" fill="#4c78a8" stroke-width="2"/></g><g class="mark-group role-legend" role="graphics-symbol" aria-roledescription="legend" aria-label="Symbol legend titled 'Count of Records' for size with values from 0 to 10,788"><g transform="translate(318,0)"><path class="background" aria-hidden="true" d="M0,0h93v214h-93Z" pointer-events="none"/><g><g class="mark-group role-legend-entry"><g transform="translate(0,16)"><path class="background" aria-hidden="true" d="M0,0h0v0h0Z" pointer-events="none"/><g><g class="mark-group role-scope" role="graphics-object" aria-roledescription="group mark container"><g transform="translate(0,0)"><path class="background" aria-hidden="true" d="M0,0h82.5859375v22.726055440041897h-82.5859375Z" pointer-events="none" opacity="1"/><g><g class="mark-symbol role-legend-symbol" pointer-events="none"><path transform="translate(24,11)" d="M10.226,0A10.226,10.226,0,1,1,-10.226,0A10.226,10.226,0,1,1,10.226,0" fill="#4c78a8" stroke-width="1.5" opacity="1"/></g><g class="mark-text role-legend-label" pointer-events="none"><text text-anchor="start" transform="translate(52,14)" font-family="sans-serif" font-size="10px" fill="#000" opacity="1">2,000</text></g></g><path class="foreground" aria-hidden="true" d="" pointer-events="none" display="none"/></g><g transform="translate(0,26)"><path class="background" aria-hidden="true" d="M0,0h82.5859375v31.46182629288642h-82.5859375Z" pointer-events="none" opacity="1"/><g><g class="mark-symbol role-legend-symbol" pointer-events="none"><path transform="translate(24,15.5)" d="M14.462,0A14.462,14.462,0,1,1,-14.462,0A14.462,14.462,0,1,1,14.462,0" fill="#4c78a8" stroke-width="1.5" opacity="1"/></g><g class="mark-text role-legend-label" pointer-events="none"><text text-anchor="start" transform="translate(52,18.5)" font-family="sans-serif" font-size="10px" fill="#000" opacity="1">4,000</text></g></g><path class="foreground" aria-hidden="true" d="" pointer-events="none" display="none"/></g><g transform="translate(0,61)"><path class="background" aria-hidden="true" d="M0,0h82.5859375v37.71204758316868h-82.5859375Z" pointer-events="none" opacity="1"/><g><g class="mark-symbol role-legend-symbol" pointer-events="none"><path transform="translate(24,18.5)" d="M17.712,0A17.712,17.712,0,1,1,-17.712,0A17.712,17.712,0,1,1,17.712,0" fill="#4c78a8" stroke-width="1.5" opacity="1"/></g><g class="mark-text role-legend-label" pointer-events="none"><text text-anchor="start" transform="translate(52,21.5)" font-family="sans-serif" font-size="10px" fill="#000" opacity="1">6,000</text></g></g><path class="foreground" aria-hidden="true" d="" pointer-events="none" display="none"/></g><g transform="translate(0,102)"><path class="background" aria-hidden="true" d="M0,0h82.5859375v43.45211088008381h-82.5859375Z" pointer-events="none" opacity="1"/><g><g class="mark-symbol role-legend-symbol" pointer-events="none"><path transform="translate(24,21.5)" d="M20.452,0A20.452,20.452,0,1,1,-20.452,0A20.452,20.452,0,1,1,20.452,0" fill="#4c78a8" stroke-width="1.5" opacity="1"/></g><g class="mark-text role-legend-label" pointer-events="none"><text text-anchor="start" transform="translate(52,24.5)" font-family="sans-serif" font-size="10px" fill="#000" opacity="1">8,000</text></g></g><path class="foreground" aria-hidden="true" d="" pointer-events="none" display="none"/></g><g transform="translate(0,149)"><path class="background" aria-hidden="true" d="M0,0h82.5859375v48.366155105615206h-82.5859375Z" pointer-events="none" opacity="1"/><g><g class="mark-symbol role-legend-symbol" pointer-events="none"><path transform="translate(24,24)" d="M22.866,0A22.866,22.866,0,1,1,-22.866,0A22.866,22.866,0,1,1,22.866,0" fill="#4c78a8" stroke-width="1.5" opacity="1"/></g><g class="mark-text role-legend-label" pointer-events="none"><text text-anchor="start" transform="translate(52,27)" font-family="sans-serif" font-size="10px" fill="#000" opacity="1">10,000</text></g></g><path class="foreground" aria-hidden="true" d="" pointer-events="none" display="none"/></g></g></g><path class="foreground" aria-hidden="true" d="" pointer-events="none" display="none"/></g></g><g class="mark-text role-legend-title" pointer-events="none"><text text-anchor="start" transform="translate(0,9)" font-family="sans-serif" font-size="11px" font-weight="bold" fill="#000" opacity="1">Count of Records</text></g></g><path class="foreground" aria-hidden="true" d="" pointer-events="none" display="none"/></g></g><g class="mark-group role-title"><g transform="translate(150,-22)"><path class="background" aria-hidden="true" d="M0,0h0v0h0Z" pointer-events="none"/><g><g class="mark-text role-title-text" role="graphics-symbol" aria-roledescription="title" aria-label="Title text 'Price of Residential Transactions by Year'" pointer-events="none"><text text-anchor="middle" transform="translate(0,10)" font-family="sans-serif" font-size="13px" font-weight="bold" fill="#000" opacity="1">Price of Residential Transactions by Year</text></g></g><path class="foreground" aria-hidden="true" d="" pointer-events="none" display="none"/></g></g></g><path class="foreground" aria-hidden="true" d="" display="none"/></g></g></g></svg>